<?xml version="1.0" encoding="utf-8"?>
<!-- Generator: Adobe Illustrator 17.1.0, SVG Export Plug-In . SVG Version: 6.00 Build 0)  -->
<!DOCTYPE svg PUBLIC "-//W3C//DTD SVG 1.1//EN" "http://www.w3.org/Graphics/SVG/1.1/DTD/svg11.dtd">
<svg version="1.1" xmlns="http://www.w3.org/2000/svg" xmlns:xlink="http://www.w3.org/1999/xlink" x="0px" y="0px"
	 viewBox="0 0 841.9 595.3" enable-background="new 0 0 841.9 595.3" xml:space="preserve">
<g id="Calque_1">
	<g>
		<path fill="#07205D" d="M122.6,427.5c0,19.1,13.4,33.6,32.3,33.6c18.6,0,33.6-14.9,33.6-33.6V416h-5.9v11.5
			c0,15.4-12.4,27.6-27.7,27.6c-15.4,0-26.3-11.9-26.3-27.6V416h-5.9V427.5z M188.5,407.4v-9.3c0-18.7-13.8-33.6-32.5-33.6
			c-18.7,0-33.3,14.5-33.3,33.6v9.3h5.9v-9.3c0-15.7,12-27.6,27.4-27.6c15.3,0,26.6,12.2,26.6,27.6v9.3H188.5z M169.9,416v11.8
			c0,9.6-7.2,14.5-14.5,14.5c-7.1,0-14.2-4.8-14.2-14.5V416h-5.9v11.8c0,13.7,10,20.4,20.1,20.4c10.1,0,20.4-6.9,20.4-20.4V416
			H169.9z M141.2,407.4v-9.3c0-9.7,7.3-14.6,14.5-14.6c7.1,0,14.2,4.9,14.2,14.6v9.3h5.9v-9.3c0-13.7-10.1-20.6-20.2-20.6
			c-10.3,0-20.4,6.9-20.4,20.6v9.3H141.2z"/>
		<path fill="#07205D" d="M202.6,428.7c0,11.7,4.2,21.1,12.4,27.3c8,6.1,16.7,6.8,20,6.8c16.7,0,31.6-13.5,31.6-34.1v-10.9h-5.9
			v10.9c0,17-12.1,28.1-25.7,28.1c-2.8,0-9.9-0.5-16.5-5.6c-6.6-5-10-12.9-10-22.6v-10.9h-5.9V428.7z M266.7,409.2v-33.9
			c0-5.2-3.8-9.4-8.7-9.4c-4.7,0-8.8,4.2-8.8,9.4v33.9h5.9v-33.9c0-1.9,1.3-3.5,2.9-3.5c1.6,0,2.8,1.6,2.8,3.5v33.9H266.7z
			 M220,409.2v-33.9c0-5.2-3.9-9.4-8.7-9.4c-4.9,0-8.7,4.2-8.7,9.4v33.9h5.9v-33.9c0-1.9,1.2-3.5,2.8-3.5c1.5,0,2.8,1.6,2.8,3.5
			v33.9H220z M249.1,417.9v10.9c0,11.3-8.7,15.3-14.1,15.3c-1.6,0-15-0.4-15-15.3v-10.9h-5.9v10.9c0,20.7,18.7,21.2,20.9,21.2
			c7.6,0,20-5.6,20-21.2v-10.9H249.1z"/>
		<path fill="#07205D" d="M280.8,416v35.7c0,5.2,4.2,9.4,9.4,9.4c5.1,0,9.4-4.2,9.4-9.4V416h-5.9v35.7c0,1.9-1.6,3.4-3.4,3.4
			c-1.9,0-3.4-1.6-3.4-3.4V416H280.8z M299.5,407.4v-33.5c0-5.2-4.2-9.4-9.4-9.4c-5.1,0-9.4,4.2-9.4,9.4v33.5h5.9v-33.5
			c0-1.9,1.6-3.5,3.4-3.5c1.8,0,3.4,1.6,3.4,3.5v33.5H299.5z"/>
		<path fill="#07205D" d="M324.6,411c4.2,3.8,9.9,6.8,17.1,9l6.6-17.5c-13.7-4-14-9.4-14-11.7c0-6.2,6.8-9,13.2-9
			c4.6,0,10.9,2.1,17,5.7c1.6,0.9,3.2,1.3,4.7,1.3c4.9,0,9.4-3.8,9.4-9.4c0-3.2-1.6-6.2-4.5-8c-6.5-3.8-16.3-8.5-26.6-8.5
			c-18,0-31.9,11.9-31.9,27.9C315.6,398.6,318.6,405.6,324.6,411L324.6,411z M381.1,434.9c0-13.5-9.2-23.8-24.6-29.7l-6.6,17.7
			c7.4,2.9,12.6,6.8,12.6,12.3c0,5.7-6.1,8.9-13.4,8.9c-17,0-19.4-8.9-26.1-8.9c-4.9,0-9.4,4.1-9.4,9.4c0,12.2,22,18.2,35.4,18.2
			c17.6,0,32-11,32-27.4V434.9z"/>
		<path fill="#07205D" d="M425.9,403.7h-12v-29.7c0-5.2-4.2-9.4-9.4-9.4c-5.1,0-9.4,4.2-9.4,9.4v77.8c0,5.2,4.2,9.4,9.4,9.4
			c5.1,0,9.4-4.2,9.4-9.4v-29.2h12V403.7z M455.8,364.5c-5.1,0-9.4,4.2-9.4,9.4v29.7h-12v18.8h12v29.2c0,5.2,4.2,9.4,9.4,9.4
			c5.1,0,9.4-4.2,9.4-9.4v-77.8C465.2,368.7,460.9,364.5,455.8,364.5z"/>
		<path fill="#07205D" d="M513.9,411.8c-4.6-12.5-9.4-16.7-12.8-18.9L480,448.3c-0.4,1.2-0.7,2.3-0.7,3.5c0,4.9,3.8,9.4,9.4,9.4
			c3.8,0,7.2-2.3,8.7-6L513.9,411.8z M556.8,448.3l-29.6-77.7c-1.5-3.7-4.7-6.1-8.7-6.1c-3.8,0-7.4,2.4-8.7,6l-5.4,14.3
			c4.2,2.1,12,8.9,16.5,20.7l0.7,1.6c2.4,5.4,4.1,11.9,4.9,13.8l1.7,4.4h-9.2l-7.2,18.8h23.6l4.2,10.9c1.5,3.8,5,6.1,8.7,6.1
			c5.5,0,9.4-4.5,9.4-9.4C557.4,450.5,557.2,449.5,556.8,448.3z"/>
		<path fill="#07205D" d="M672.2,423.7H704c5.3,0,9.5-4.3,9.5-9.4c0-5.3-4.2-9.6-9.5-9.6h-31.7v-38.6h-9.4c-5.1,0-9.4,4.2-9.4,9.4
			v77.8c0,4.8,4.6,9.4,9.4,9.4h9.4V423.7z M680.8,384.9h32.3c5.1,0,9.4-4.2,9.4-9.4s-4.2-9.4-9.4-9.4h-32.3V384.9z M713.1,443.9
			h-32.3v18.9h32.3c5.1,0,9.4-4.2,9.4-9.4C722.4,448.1,718.2,443.9,713.1,443.9z"/>
		<path fill="#07205D" d="M571.6,375.6v77.5c0,5.3,3.9,9.6,9,9.6c5,0,9.1-4.2,9.1-9.6v-87.1h-9.1
			C575.5,366.1,571.6,370.3,571.6,375.6L571.6,375.6z M620,457.2c1.6,3.5,4.6,5.4,8.2,5.4c5.5,0,8.8-4.8,8.8-9.4v-0.9
			c0-1.1-0.3-2.1-0.8-3.2l-9.2-20.4c-5.3,2.7-11.2,4.1-17.9,4.4L620,457.2z M632,414.7c4.9-5.2,7.4-13.1,7.4-20.6
			c0-12-6.2-21.8-18-26.4c-4.1-1.6-8.8-1.6-14-1.6h-9.6v19.1h9c7.1,0,14.6,1.5,14.6,10c0,8.5-7.5,10.1-14.6,10.1h-9v19.1h7
			C616.2,424.4,623.8,423.2,632,414.7z"/>
	</g>
	<polygon fill="#07205D" points="571.4,182.4 571.4,225.4 534.2,203.9 	"/>
	<polygon fill="#07205D" points="571.4,139.4 571.4,182.4 534.2,160.9 	"/>
	<polygon fill="#07205D" points="571.4,96.4 571.4,139.4 534.2,117.9 	"/>
	<polygon fill="#07205D" points="534.2,117.9 534.2,74.9 571.4,96.4 534.2,117.9 	"/>
	<polygon fill="#07205D" points="534.2,117.9 534.2,117.9 571.4,139.4 534.2,160.9 534.2,160.9 	"/>
	<polygon fill="#07205D" points="534.2,160.9 534.2,160.9 571.4,182.4 534.2,203.9 534.2,203.9 	"/>
	<polygon fill="#07205D" points="534.2,203.9 534.2,203.9 571.4,225.4 534.2,246.9 	"/>
	<polygon fill="#07205D" points="534.2,74.9 534.2,117.9 497,96.4 	"/>
	<polygon fill="#07205D" points="534.2,203.9 534.2,246.9 497,225.4 	"/>
	<polygon fill="#07205D" points="497,268.4 497,225.4 534.2,246.9 	"/>
	<polygon fill="#07205D" points="497,96.4 497,53.5 534.2,74.9 	"/>
	<polygon fill="#07205D" points="497,268.4 459.8,246.9 497,225.4 	"/>
	<polygon fill="#07205D" points="497,96.4 459.8,74.9 497,53.5 	"/>
	<polygon fill="#07205D" points="459.8,117.9 459.8,117.9 459.8,74.9 459.8,74.9 497,96.4 	"/>
	<polygon fill="#07205D" points="497,268.4 459.8,289.9 459.8,246.9 459.8,246.9 	"/>
	<polygon fill="#07205D" points="459.8,74.9 459.8,117.9 422.5,96.4 	"/>
	<polygon fill="#07205D" points="422.5,268.4 459.8,246.9 459.8,289.9 	"/>
	<polygon fill="#07205D" points="422.5,268.4 459.8,289.9 422.5,311.4 	"/>
	<polygon fill="#07205D" points="422.5,139.4 422.5,96.4 459.8,117.9 	"/>
	<polygon fill="#07205D" points="422.5,268.4 422.5,311.4 385.3,289.9 	"/>
	<polygon fill="#07205D" points="385.3,117.9 422.5,96.4 422.5,139.4 	"/>
	<polygon fill="#07205D" points="385.3,74.9 422.5,96.4 385.3,117.9 385.3,117.9 	"/>
	<polygon fill="#07205D" points="385.3,246.9 422.5,268.4 385.3,289.9 385.3,289.9 385.3,246.9 	"/>
	<polygon fill="#07205D" points="385.3,74.9 348.1,96.4 348.1,53.5 	"/>
	<polygon fill="#07205D" points="385.3,74.9 385.3,117.9 348.1,96.4 	"/>
	<polygon fill="#07205D" points="385.3,246.9 348.1,268.4 348.1,225.4 	"/>
	<polygon fill="#07205D" points="385.3,246.9 385.3,289.9 348.1,268.4 	"/>
	<polygon fill="#07205D" points="348.1,225.4 348.1,268.4 310.8,246.9 	"/>
	<polygon fill="#07205D" points="348.1,53.5 348.1,96.4 310.8,74.9 	"/>
	<polygon fill="#07205D" points="348.1,96.4 310.8,117.9 310.8,74.9 	"/>
	<polygon fill="#07205D" points="348.1,225.4 310.8,246.9 310.8,203.9 	"/>
	<polygon fill="#07205D" points="310.8,203.9 310.8,246.9 273.6,225.4 	"/>
	<polygon fill="#07205D" points="310.8,160.9 310.8,203.9 273.6,182.4 	"/>
	<polygon fill="#07205D" points="310.8,117.9 310.8,160.9 273.6,139.4 	"/>
	<polygon fill="#07205D" points="310.8,74.9 310.8,117.9 273.6,96.4 	"/>
	<polygon fill="#07205D" points="310.8,117.9 273.6,139.4 273.6,96.4 	"/>
	<polygon fill="#07205D" points="310.8,160.9 273.6,182.4 273.6,139.4 	"/>
	<polygon fill="#07205D" points="310.8,203.9 273.6,225.4 273.6,182.4 	"/>
</g>
<g id="Calque_2">
</g>
</svg>
