<?xml version="1.0" encoding="utf-8"?>
<!-- Generator: Adobe Illustrator 17.1.0, SVG Export Plug-In . SVG Version: 6.00 Build 0)  -->
<!DOCTYPE svg PUBLIC "-//W3C//DTD SVG 1.1//EN" "http://www.w3.org/Graphics/SVG/1.1/DTD/svg11.dtd">
<svg version="1.1" xmlns="http://www.w3.org/2000/svg" xmlns:xlink="http://www.w3.org/1999/xlink" x="0px" y="0px"
	 viewBox="0 0 841.9 595.3" enable-background="new 0 0 841.9 595.3" xml:space="preserve">
<g id="Calque_1">
	<g>
		<path fill="#07205D" d="M261.7,308.4c0,14.7,10.3,25.8,24.8,25.8c14.3,0,25.8-11.4,25.8-25.8v-8.9h-4.6v8.9
			c0,11.8-9.5,21.2-21.3,21.2c-11.8,0-20.2-9.2-20.2-21.2v-8.9h-4.6V308.4z M312.3,292.9v-7.1c0-14.4-10.6-25.8-25-25.8
			c-14.4,0-25.6,11.1-25.6,25.8v7.1h4.6v-7.1c0-12,9.2-21.2,21.1-21.2c11.8,0,20.5,9.4,20.5,21.2v7.1H312.3z M298,299.5v9.1
			c0,7.4-5.6,11.1-11.1,11.1c-5.5,0-10.9-3.7-10.9-11.1v-9.1h-4.6v9.1c0,10.5,7.7,15.7,15.5,15.7c7.8,0,15.7-5.3,15.7-15.7v-9.1H298
			z M275.9,292.9v-7.1c0-7.4,5.6-11.2,11.1-11.2c5.5,0,10.9,3.8,10.9,11.2v7.1h4.6v-7.1c0-10.5-7.8-15.8-15.5-15.8
			c-7.9,0-15.7,5.3-15.7,15.8v7.1H275.9z"/>
		<path fill="#07205D" d="M323.1,309.3c0,9,3.2,16.2,9.5,21c6.2,4.7,12.9,5.2,15.4,5.2c12.9,0,24.3-10.4,24.3-26.2v-8.4h-4.6v8.4
			c0,13.1-9.3,21.6-19.7,21.6c-2.1,0-7.6-0.4-12.7-4.3c-5.1-3.9-7.7-9.9-7.7-17.3v-8.4h-4.6V309.3z M372.4,294.3v-26
			c0-4-2.9-7.2-6.7-7.2c-3.6,0-6.8,3.3-6.8,7.2v26h4.6v-26c0-1.4,1-2.7,2.2-2.7c1.2,0,2.1,1.2,2.1,2.7v26H372.4z M336.5,294.3v-26
			c0-4-3-7.2-6.7-7.2c-3.7,0-6.7,3.3-6.7,7.2v26h4.6v-26c0-1.4,0.9-2.7,2.1-2.7c1.1,0,2.1,1.2,2.1,2.7v26H336.5z M358.9,300.9v8.4
			c0,8.7-6.7,11.7-10.8,11.7c-1.2,0-11.5-0.3-11.5-11.7v-8.4H332v8.4c0,15.9,14.4,16.3,16.1,16.3c5.9,0,15.4-4.3,15.4-16.3v-8.4
			H358.9z"/>
		<path fill="#07205D" d="M383.2,299.5V327c0,4,3.2,7.2,7.2,7.2c3.9,0,7.2-3.3,7.2-7.2v-27.5H393V327c0,1.4-1.2,2.6-2.6,2.6
			c-1.4,0-2.6-1.2-2.6-2.6v-27.5H383.2z M397.6,292.9v-25.7c0-4-3.2-7.2-7.2-7.2c-3.9,0-7.2,3.3-7.2,7.2v25.7h4.6v-25.7
			c0-1.4,1.2-2.7,2.6-2.7c1.4,0,2.6,1.2,2.6,2.7v25.7H397.6z"/>
		<path fill="#07205D" d="M416.9,295.6c3.2,3,7.6,5.2,13.2,6.9l5.1-13.5c-10.5-3.1-10.7-7.2-10.7-9c0-4.8,5.3-6.9,10.1-6.9
			c3.5,0,8.4,1.6,13.1,4.4c1.2,0.7,2.4,1,3.6,1c3.7,0,7.2-3,7.2-7.2c0-2.4-1.2-4.8-3.4-6.1c-5-3-12.6-6.5-20.4-6.5
			c-13.9,0-24.5,9.2-24.5,21.4C410,286.1,412.3,291.6,416.9,295.6L416.9,295.6z M460.3,314c0-10.4-7.1-18.3-18.9-22.9l-5.1,13.6
			c5.7,2.2,9.7,5.2,9.7,9.5c0,4.4-4.7,6.8-10.3,6.8c-13.1,0-14.9-6.8-20.1-6.8c-3.7,0-7.2,3.2-7.2,7.2c0,9.4,16.9,14,27.2,14
			c13.6,0,24.6-8.5,24.6-21V314z"/>
		<path fill="#07205D" d="M494.8,290h-9.2v-22.9c0-4-3.2-7.2-7.2-7.2c-4,0-7.2,3.3-7.2,7.2V327c0,4,3.2,7.2,7.2,7.2
			c4,0,7.2-3.3,7.2-7.2v-22.5h9.2V290z M517.7,259.9c-4,0-7.2,3.3-7.2,7.2V290h-9.2v14.5h9.2V327c0,4,3.2,7.2,7.2,7.2
			c3.9,0,7.2-3.3,7.2-7.2v-59.8C524.9,263.2,521.7,259.9,517.7,259.9z"/>
		<path fill="#07205D" d="M562.4,296.3c-3.5-9.6-7.2-12.9-9.8-14.5l-16.3,42.5c-0.3,0.9-0.5,1.7-0.5,2.7c0,3.8,2.9,7.2,7.2,7.2
			c2.9,0,5.6-1.7,6.7-4.6L562.4,296.3z M595.3,324.3l-22.8-59.7c-1.1-2.9-3.6-4.7-6.7-4.7c-2.9,0-5.7,1.8-6.7,4.6l-4.1,11
			c3.2,1.6,9.2,6.8,12.7,15.9l0.5,1.2c1.8,4.2,3.1,9.2,3.7,10.6l1.3,3.4h-7.1l-5.6,14.5h18.1l3.2,8.4c1.1,3,3.8,4.7,6.7,4.7
			c4.3,0,7.2-3.5,7.2-7.2C595.8,326,595.6,325.2,595.3,324.3z"/>
		<path fill="#07205D" d="M684.1,305.4h24.4c4,0,7.3-3.3,7.3-7.2c0-4.1-3.2-7.4-7.3-7.4h-24.4v-29.7h-7.2c-4,0-7.2,3.3-7.2,7.2v59.8
			c0,3.7,3.5,7.2,7.2,7.2h7.2V305.4z M690.7,275.6h24.8c3.9,0,7.2-3.3,7.2-7.2s-3.2-7.2-7.2-7.2h-24.8V275.6z M715.5,320.9h-24.8
			v14.5h24.8c3.9,0,7.2-3.3,7.2-7.2C722.7,324.2,719.4,320.9,715.5,320.9z"/>
		<path fill="#07205D" d="M606.7,268.5v59.6c0,4.1,3,7.4,6.9,7.4c3.8,0,7-3.3,7-7.4v-66.9h-7C609.7,261.1,606.7,264.4,606.7,268.5
			L606.7,268.5z M644,331.1c1.2,2.7,3.5,4.2,6.3,4.2c4.3,0,6.8-3.7,6.8-7.2v-0.7c0-0.8-0.2-1.6-0.6-2.4l-7.1-15.7
			c-4,2-8.6,3.2-13.8,3.4L644,331.1z M653.2,298.5c3.7-4,5.7-10.1,5.7-15.8c0-9.2-4.8-16.7-13.9-20.3c-3.1-1.2-6.8-1.2-10.7-1.2
			h-7.4v14.7h6.9c5.5,0,11.2,1.1,11.2,7.7s-5.8,7.8-11.2,7.8h-6.9v14.7h5.4C641,305.9,646.9,305,653.2,298.5z"/>
	</g>
	<g id="XMLID_2_">
		<polygon fill="#07205D" points="218.2,298.3 218.2,312.7 205.8,305.5 		"/>
		<polygon fill="#07205D" points="218.2,283.9 218.2,298.3 205.8,291.1 		"/>
		<polygon fill="#07205D" points="218.2,269.6 218.2,283.9 205.8,276.7 		"/>
		<polygon fill="#07205D" points="218.2,269.6 205.8,276.7 205.8,262.4 		"/>
		<polygon fill="#07205D" points="218.2,283.9 205.8,291.1 205.8,276.7 		"/>
		<polygon fill="#07205D" points="218.2,298.3 205.8,305.5 205.8,291.1 		"/>
		<polygon fill="#07205D" points="218.2,312.7 205.8,319.8 205.8,305.5 		"/>
		<polygon fill="#07205D" points="205.8,305.5 205.8,319.8 193.3,312.7 		"/>
		<polygon fill="#07205D" points="205.8,262.4 205.8,276.7 193.3,269.6 		"/>
		<polygon fill="#07205D" points="205.8,262.4 193.3,269.6 193.3,255.2 		"/>
		<polygon fill="#07205D" points="205.8,319.8 193.3,327 193.3,312.7 		"/>
		<polygon fill="#07205D" points="193.3,312.7 193.3,327 180.9,319.8 		"/>
		<polygon fill="#07205D" points="193.3,255.2 193.3,269.6 180.9,262.4 		"/>
		<polygon fill="#07205D" points="193.3,269.6 180.9,276.7 180.9,262.4 		"/>
		<polygon fill="#07205D" points="193.3,327 180.9,334.2 180.9,319.8 		"/>
		<polygon fill="#07205D" points="180.9,319.8 180.9,334.2 168.4,327 		"/>
		<polygon fill="#07205D" points="180.9,262.4 180.9,276.7 168.4,269.6 		"/>
		<polygon fill="#07205D" points="180.9,276.7 168.4,283.9 168.4,269.6 		"/>
		<polygon fill="#07205D" points="180.9,334.2 168.4,341.4 168.4,327 		"/>
		<polygon fill="#07205D" points="168.4,327 168.4,341.4 156,334.2 		"/>
		<polygon fill="#07205D" points="168.4,269.6 168.4,283.9 156,276.7 		"/>
		<polygon fill="#07205D" points="168.4,269.6 156,276.7 156,262.4 		"/>
		<polygon fill="#07205D" points="168.4,327 156,334.2 156,319.8 		"/>
		<polygon fill="#07205D" points="156,319.8 156,334.2 143.6,327 		"/>
		<polygon fill="#07205D" points="156,262.4 156,276.7 143.6,269.6 		"/>
		<polygon fill="#07205D" points="156,262.4 143.6,269.6 143.6,255.2 		"/>
		<polygon fill="#07205D" points="156,319.8 143.6,327 143.6,312.7 		"/>
		<polygon fill="#07205D" points="143.6,312.7 143.6,327 131.1,319.8 		"/>
		<polygon fill="#07205D" points="143.6,255.2 143.6,269.6 131.1,262.4 		"/>
		<polygon fill="#07205D" points="143.6,269.6 131.1,276.7 131.1,262.4 		"/>
		<polygon fill="#07205D" points="143.6,312.7 131.1,319.8 131.1,305.5 		"/>
		<polygon fill="#07205D" points="131.1,305.5 131.1,319.8 118.7,312.7 		"/>
		<polygon fill="#07205D" points="131.1,291.1 131.1,305.5 118.7,298.3 		"/>
		<polygon fill="#07205D" points="131.1,276.7 131.1,291.1 118.7,283.9 		"/>
		<polygon fill="#07205D" points="131.1,262.4 131.1,276.7 118.7,269.6 		"/>
		<polygon fill="#07205D" points="131.1,276.7 118.7,283.9 118.7,269.6 		"/>
		<polygon fill="#07205D" points="131.1,291.1 118.7,298.3 118.7,283.9 		"/>
		<polygon fill="#07205D" points="131.1,305.5 118.7,312.7 118.7,298.3 		"/>
	</g>
</g>
<g id="Calque_2">
</g>
</svg>
