<?xml version="1.0" encoding="utf-8"?>
<!-- Generator: Adobe Illustrator 17.1.0, SVG Export Plug-In . SVG Version: 6.00 Build 0)  -->
<!DOCTYPE svg PUBLIC "-//W3C//DTD SVG 1.1//EN" "http://www.w3.org/Graphics/SVG/1.1/DTD/svg11.dtd">
<svg version="1.1" xmlns="http://www.w3.org/2000/svg" xmlns:xlink="http://www.w3.org/1999/xlink" x="0px" y="0px"
	 viewBox="0 0 841.9 595.3" enable-background="new 0 0 841.9 595.3" xml:space="preserve">
<g id="Calque_2">
	<path fill="#07205D" d="M517.3,147.6l-92.2,53.3l-92.3-53.3l-92.2,53.3v159.8l184.5,106.5l184.5-106.5V200.9L517.3,147.6z"/>
</g>
<g id="Calque_1">
	<g>
		<path fill="#FFFFFF" d="M285,312c0,8.8,6.2,15.4,14.8,15.4c8.5,0,15.4-6.8,15.4-15.4v-5.3h-2.7v5.3c0,7.1-5.7,12.7-12.7,12.7
			c-7.1,0-12.1-5.5-12.1-12.7v-5.3H285V312z M315.3,302.7v-4.3c0-8.6-6.4-15.4-15-15.4c-8.6,0-15.3,6.6-15.3,15.4v4.3h2.7v-4.3
			c0-7.2,5.5-12.7,12.6-12.7c7,0,12.2,5.6,12.2,12.7v4.3H315.3z M306.7,306.7v5.4c0,4.4-3.3,6.7-6.7,6.7c-3.3,0-6.5-2.2-6.5-6.7
			v-5.4h-2.7v5.4c0,6.3,4.6,9.4,9.3,9.4c4.7,0,9.4-3.2,9.4-9.4v-5.4H306.7z M293.5,302.7v-4.3c0-4.5,3.3-6.7,6.7-6.7
			c3.3,0,6.5,2.3,6.5,6.7v4.3h2.7v-4.3c0-6.3-4.7-9.5-9.3-9.5c-4.7,0-9.4,3.2-9.4,9.5v4.3H293.5z"/>
		<path fill="#FFFFFF" d="M321.8,312.5c0,5.4,1.9,9.7,5.7,12.6c3.7,2.8,7.7,3.1,9.2,3.1c7.7,0,14.5-6.2,14.5-15.7v-5h-2.7v5
			c0,7.8-5.6,12.9-11.8,12.9c-1.3,0-4.5-0.2-7.6-2.6c-3-2.3-4.6-5.9-4.6-10.4v-5h-2.7V312.5z M351.2,303.6V288c0-2.4-1.8-4.3-4-4.3
			c-2.2,0-4.1,2-4.1,4.3v15.6h2.7V288c0-0.9,0.6-1.6,1.3-1.6c0.7,0,1.3,0.7,1.3,1.6v15.6H351.2z M329.8,303.6V288
			c0-2.4-1.8-4.3-4-4.3c-2.2,0-4,2-4,4.3v15.6h2.7V288c0-0.9,0.5-1.6,1.3-1.6c0.7,0,1.3,0.7,1.3,1.6v15.6H329.8z M343.1,307.5v5
			c0,5.2-4,7-6.5,7c-0.7,0-6.9-0.2-6.9-7v-5H327v5c0,9.5,8.6,9.8,9.6,9.8c3.5,0,9.2-2.6,9.2-9.8v-5H343.1z"/>
		<path fill="#FFFFFF" d="M357.7,306.7v16.4c0,2.4,1.9,4.3,4.3,4.3c2.4,0,4.3-2,4.3-4.3v-16.4h-2.7v16.4c0,0.9-0.7,1.6-1.6,1.6
			c-0.9,0-1.6-0.7-1.6-1.6v-16.4H357.7z M366.3,302.7v-15.4c0-2.4-1.9-4.3-4.3-4.3c-2.4,0-4.3,1.9-4.3,4.3v15.4h2.7v-15.4
			c0-0.9,0.7-1.6,1.6-1.6c0.8,0,1.6,0.7,1.6,1.6v15.4H366.3z"/>
		<path fill="#FFFFFF" d="M377.8,304.4c1.9,1.8,4.5,3.1,7.9,4.2l3-8.1c-6.3-1.8-6.4-4.3-6.4-5.4c0-2.9,3.1-4.1,6.1-4.1
			c2.1,0,5,1,7.8,2.6c0.7,0.4,1.5,0.6,2.2,0.6c2.2,0,4.3-1.8,4.3-4.3c0-1.5-0.7-2.9-2.1-3.7c-3-1.8-7.5-3.9-12.2-3.9
			c-8.3,0-14.7,5.5-14.7,12.8C373.7,298.7,375.1,301.9,377.8,304.4L377.8,304.4z M403.8,315.4c0-6.2-4.2-10.9-11.3-13.7l-3,8.1
			c3.4,1.3,5.8,3.1,5.8,5.7c0,2.6-2.8,4.1-6.2,4.1c-7.8,0-8.9-4.1-12-4.1c-2.2,0-4.3,1.9-4.3,4.3c0,5.6,10.1,8.4,16.3,8.4
			c8.1,0,14.7-5.1,14.7-12.6V315.4z"/>
		<path fill="#FFFFFF" d="M424.4,301h-5.5v-13.7c0-2.4-1.9-4.3-4.3-4.3c-2.4,0-4.3,1.9-4.3,4.3v35.8c0,2.4,1.9,4.3,4.3,4.3
			c2.4,0,4.3-2,4.3-4.3v-13.4h5.5V301z M438.1,283c-2.4,0-4.3,1.9-4.3,4.3V301h-5.5v8.7h5.5v13.4c0,2.4,1.9,4.3,4.3,4.3
			c2.4,0,4.3-2,4.3-4.3v-35.8C442.4,285,440.5,283,438.1,283z"/>
		<path fill="#FFFFFF" d="M464.9,304.7c-2.1-5.7-4.3-7.7-5.9-8.7l-9.8,25.4c-0.2,0.5-0.3,1-0.3,1.6c0,2.3,1.8,4.3,4.3,4.3
			c1.8,0,3.3-1,4-2.7L464.9,304.7z M484.5,321.5l-13.6-35.7c-0.7-1.7-2.2-2.8-4-2.8c-1.8,0-3.4,1.1-4,2.7l-2.5,6.6
			c1.9,1,5.5,4.1,7.6,9.5l0.3,0.7c1.1,2.5,1.9,5.5,2.2,6.3l0.8,2h-4.2l-3.3,8.7h10.8l1.9,5c0.7,1.8,2.3,2.8,4,2.8
			c2.5,0,4.3-2.1,4.3-4.3C484.8,322.6,484.7,322.1,484.5,321.5z"/>
		<path fill="#FFFFFF" d="M537.6,310.2h14.6c2.4,0,4.4-2,4.4-4.3c0-2.4-1.9-4.4-4.4-4.4h-14.6v-17.8h-4.3c-2.4,0-4.3,2-4.3,4.3v35.8
			c0,2.2,2.1,4.3,4.3,4.3h4.3V310.2z M541.5,292.4h14.8c2.4,0,4.3-2,4.3-4.3c0-2.4-1.9-4.3-4.3-4.3h-14.8V292.4z M556.4,319.5h-14.8
			v8.7h14.8c2.4,0,4.3-2,4.3-4.3C560.7,321.5,558.7,319.5,556.4,319.5z"/>
		<path fill="#FFFFFF" d="M491.3,288.1v35.6c0,2.4,1.8,4.4,4.1,4.4c2.3,0,4.2-2,4.2-4.4v-40h-4.2
			C493.1,283.7,491.3,285.7,491.3,288.1L491.3,288.1z M513.6,325.6c0.7,1.6,2.1,2.5,3.8,2.5c2.5,0,4.1-2.2,4.1-4.3v-0.4
			c0-0.5-0.1-1-0.4-1.5l-4.2-9.4c-2.4,1.2-5.1,1.9-8.2,2L513.6,325.6z M519.1,306.1c2.2-2.4,3.4-6,3.4-9.5c0-5.5-2.8-10-8.3-12.1
			c-1.9-0.7-4.1-0.7-6.4-0.7h-4.4v8.8h4.1c3.3,0,6.7,0.7,6.7,4.6s-3.5,4.6-6.7,4.6h-4.1v8.8h3.2C511.9,310.5,515.4,310,519.1,306.1z
			"/>
	</g>
</g>
</svg>
